<svg width="95" height="61" viewBox="0 0 95 61" fill="none" xmlns="http://www.w3.org/2000/svg">
<path d="M0.96 60V0.799999H26.564V10.568H12.06V24.998H25.824V34.766H12.06V60H0.96ZM46.1185 60.74C40.5685 60.74 36.5972 59.593 34.2045 57.299C31.8118 55.005 30.5785 51.194 30.5045 45.866C30.4058 38.4167 30.3565 30.9057 30.3565 23.333C30.3565 15.7357 30.4058 8.22467 30.5045 0.799999H41.6045C41.5058 5.758 41.4442 10.9257 41.4195 16.303C41.4195 21.6803 41.4318 27.0577 41.4565 32.435C41.5058 37.8123 41.5552 42.98 41.6045 47.938C41.6045 49.1467 41.9992 50.084 42.7885 50.75C43.5778 51.3913 44.6878 51.712 46.1185 51.712C47.5738 51.712 48.6715 51.3913 49.4115 50.75C50.1762 50.084 50.5585 49.1467 50.5585 47.938C50.6078 42.98 50.6448 37.8123 50.6695 32.435C50.7188 27.0577 50.7312 21.6803 50.7065 16.303C50.7065 10.9257 50.6572 5.758 50.5585 0.799999H61.6585C61.7818 8.22467 61.8435 15.7357 61.8435 23.333C61.8435 30.9057 61.7818 38.4167 61.6585 45.866C61.5845 51.194 60.3512 55.005 57.9585 57.299C55.5905 59.593 51.6438 60.74 46.1185 60.74ZM74.076 60V10.568H64.567V0.799999H94.685V10.568H85.176V60H74.076Z" fill="url(#paint0_linear_58_3)"/>
<defs>
<linearGradient id="paint0_linear_58_3" x1="47" y1="-13" x2="47" y2="76" gradientUnits="userSpaceOnUse">
<stop stop-color="#35BEBE"/>
<stop offset="1" stop-color="#195858"/>
</linearGradient>
</defs>
</svg>
