<svg width="758" height="755" viewBox="0 0 758 755" fill="none" xmlns="http://www.w3.org/2000/svg">
<path d="M693.651 22H74.5L1 754H757L693.651 22Z" fill="#393A3A" stroke="#858585"/>
<path d="M42.5 329H721" stroke="#858585"/>
<circle cx="379" cy="329" r="89.5" stroke="#858585"/>
<mask id="path-4-inside-1_49_5" fill="white">
<path d="M469 627C469 615.181 466.672 603.478 462.149 592.558C457.626 581.639 450.997 571.718 442.64 563.36C434.282 555.003 424.361 548.374 413.442 543.851C402.522 539.328 390.819 537 379 537C367.181 537 355.478 539.328 344.558 543.851C333.639 548.374 323.718 555.003 315.36 563.36C307.003 571.718 300.374 581.639 295.851 592.558C291.328 603.478 289 615.181 289 627L379 627H469Z"/>
</mask>
<path d="M469 627C469 615.181 466.672 603.478 462.149 592.558C457.626 581.639 450.997 571.718 442.64 563.36C434.282 555.003 424.361 548.374 413.442 543.851C402.522 539.328 390.819 537 379 537C367.181 537 355.478 539.328 344.558 543.851C333.639 548.374 323.718 555.003 315.36 563.36C307.003 571.718 300.374 581.639 295.851 592.558C291.328 603.478 289 615.181 289 627L379 627H469Z" stroke="#858585" stroke-width="2" mask="url(#path-4-inside-1_49_5)"/>
<path d="M184.5 579L178 754H581L572.103 579H184.5Z" fill="#393A3A" stroke="#858585"/>
<path d="M279.339 674L276 754H483L478.43 674H279.339Z" fill="#393A3A" stroke="#919191"/>
<mask id="path-7-inside-2_49_5" fill="white">
<path d="M469 90C469 101.819 466.672 113.522 462.149 124.442C457.626 135.361 450.997 145.282 442.64 153.64C434.282 161.997 424.361 168.626 413.442 173.149C402.522 177.672 390.819 180 379 180C367.181 180 355.478 177.672 344.558 173.149C333.639 168.626 323.718 161.997 315.36 153.64C307.003 145.282 300.374 135.361 295.851 124.442C291.328 113.522 289 101.819 289 90L379 90H469Z"/>
</mask>
<path d="M469 90C469 101.819 466.672 113.522 462.149 124.442C457.626 135.361 450.997 145.282 442.64 153.64C434.282 161.997 424.361 168.626 413.442 173.149C402.522 177.672 390.819 180 379 180C367.181 180 355.478 177.672 344.558 173.149C333.639 168.626 323.718 161.997 315.36 153.64C307.003 145.282 300.374 135.361 295.851 124.442C291.328 113.522 289 101.819 289 90L379 90H469Z" stroke="#858585" stroke-width="2" mask="url(#path-7-inside-2_49_5)"/>
<path d="M580 140.5L572.5 22L187.5 22L177 140.5L580 140.5Z" fill="#393A3A" stroke="#858585"/>
<path d="M482 90L478.148 22L280.393 22L275 90L482 90Z" fill="#393A3A" stroke="#858585"/>
</svg>
